<svg height="464pt" viewBox="-7 0 464 464.61781" width="464pt" xmlns="http://www.w3.org/2000/svg"><path d="m430.308594 64.617188v400h-400v-400h33.519531c-.027344.019531-.058594.039062-.089844.0625h355.242188c.648437 0 1.296875-.023438 1.949219-.0625zm0 0" fill="#fff2d4"/><path d="m42.058594 265.867188v-190h33.519531c-.027344.019531-.058594.039062-.089844.0625h354.820313v-11.3125h-9.378906c-.652344.039062-1.300782.0625-1.949219.0625h-355.242188c.03125-.023438.0625-.042969.089844-.0625h-33.519531v400h11.75zm0 0" fill="#e5d0a8"/><path d="m110.308594 384.617188c11.261718 0 21.640625-3.71875 30-10v60l-30-20-30 20v-60c8.359375 6.28125 18.742187 10 30 10zm0 0" fill="#d65b5b"/><path d="m83.808594 383.285156c8.359375 6.28125 18.742187 10 30 10 9.738281 0 18.816406-2.789062 26.5-7.601562v-11.066406c-8.359375 6.28125-18.738282 10-30 10-11.257813 0-21.640625-3.71875-30-10v60l3.5-2.332032zm0 0" fill="#c45353"/><path d="m160.308594 334.617188c0 16.359374-7.859375 30.882812-20 40-8.359375 6.28125-18.738282 10-30 10-11.257813 0-21.640625-3.71875-30-10-12.140625-9.117188-20-23.640626-20-40 0-27.609376 22.390625-50 50-50s50 22.390624 50 50zm0 0" fill="#ff7979"/><path d="m67.976562 349.949219c0-27.605469 22.390626-50 50-50 16.496094 0 31.125 8 40.230469 20.324219-6.167969-20.617188-25.273437-35.65625-47.898437-35.65625-27.609375 0-50 22.390624-50 50 0 11.109374 3.632812 21.367187 9.761718 29.664062-1.355468-4.539062-2.09375-9.347656-2.09375-14.332031zm0 0" fill="#d65b5b"/><path d="m64.660156 1.558594c10.140625 6.910156 16.589844 18.429687 16.589844 31.328125 0 13.320312-6.882812 25.269531-17.421875 31.730469h-33.519531v190h-30v-210c0-26.257813 20.121094-46.75 46.378906-44.4375zm0 0" fill="#e2bf7f"/><path d="m8.058594 54.367188c0-26.257813 20.121094-46.75 46.378906-44.4375l17.972656 1.378906c1.449219.984375 2.8125 2.078125 4.101563 3.246094-2.867188-5.175782-6.917969-9.636719-11.851563-12.996094l-17.972656-1.378906c-26.257812-2.3125-46.378906 18.179687-46.378906 44.4375v210h7.75zm0 0" fill="#d1ad74"/><path d="m441.207031 10.886719c5.640625 5.761719 9.101563 13.699219 9.101563 22.460937 0 16.410156-12.800782 30.261719-29.378906 31.269532h-357.101563c10.539063-6.460938 17.421875-18.410157 17.421875-31.730469 0-12.898438-6.449219-24.417969-16.589844-31.328125h354.320313c8.75 0 16.589843 3.570312 22.226562 9.328125zm0 0" fill="#f7d794"/><path d="m63.828125 64.617188h8.84375c3.597656-5.394532 5.835937-11.800782 6.253906-18.65625-2.855469 7.804687-8.179687 14.417968-15.097656 18.65625zm0 0" fill="#e2bf7f"/><path d="m75.15625 12.308594h341.574219c8.75 0 16.589843 3.570312 22.226562 9.328125 5.640625 5.761719 9.101563 13.699219 9.101563 22.460937 0 .316406-.015625.632813-.023438.949219 1.46875-3.628906 2.273438-7.582031 2.273438-11.699219 0-8.761718-3.460938-16.699218-9.101563-22.460937-5.640625-5.757813-13.476562-9.328125-22.226562-9.328125h-354.320313c4.203125 2.863281 7.757813 6.53125 10.496094 10.75zm0 0" fill="#e2bf7f"/><g fill="#e5d0a8"><path d="m280.308594 104.617188h20v20h-20zm0 0"/><path d="m240.308594 104.617188h20v20h-20zm0 0"/><path d="m200.308594 104.617188h20v20h-20zm0 0"/><path d="m160.308594 104.617188h20v20h-20zm0 0"/><path d="m360.308594 169.617188h-270c-2.761719 0-5-2.238282-5-5 0-2.761719 2.238281-5 5-5h270c2.761718 0 5 2.238281 5 5 0 2.761718-2.238282 5-5 5zm0 0"/><path d="m360.308594 209.617188h-270c-2.761719 0-5-2.238282-5-5 0-2.761719 2.238281-5 5-5h270c2.761718 0 5 2.238281 5 5 0 2.761718-2.238282 5-5 5zm0 0"/><path d="m360.308594 249.617188h-190c-2.761719 0-5-2.238282-5-5 0-2.761719 2.238281-5 5-5h190c2.761718 0 5 2.238281 5 5 0 2.761718-2.238282 5-5 5zm0 0"/><path d="m360.308594 289.617188h-180c-2.761719 0-5-2.238282-5-5 0-2.761719 2.238281-5 5-5h180c2.761718 0 5 2.238281 5 5 0 2.761718-2.238282 5-5 5zm0 0"/><path d="m360.308594 329.617188h-160c-2.761719 0-5-2.238282-5-5 0-2.761719 2.238281-5 5-5h160c2.761718 0 5 2.238281 5 5 0 2.761718-2.238282 5-5 5zm0 0"/></g></svg>