<svg height="410pt" viewBox="0 -34 410 410" width="410pt" xmlns="http://www.w3.org/2000/svg"><path d="m0 182.460938v-40h203.75l4.621094 4.660156 55.617187 55.339844 55.332031-55.339844 4.621094-4.660156h86.058594v200h-410zm0 0" fill="#ffd8a8"/><g fill="#eabd8c"><path d="m10.332031 193.460938v-40h203.753907l4.617187 4.660156 52.621094 51.339844 51.328125-51.339844 4.621094-4.660156h82.726562v-11h-86.058594l-4.621094 4.660156-55.332031 55.339844-55.617187-55.339844-4.621094-4.660156h-203.75v200h10.332031zm0 0"/><path d="m312.128906 232.460938h17.871094v80h-17.871094zm0 0"/><path d="m298.699219 232.460938v14.828124h-30.25v18.28125h28.261719v14.71875h-28.261719v32.171876h-17.871094v-80zm0 0"/><path d="m208.761719 275.300781h30.597656v11.988281h-30.597656zm0 0"/><path d="m179.679688 232.460938h17.871093v80h-17.871093zm0 0"/><path d="m170.449219 232.460938-20.320313 80h-19.269531l-6.660156-34.429688c-1.519531-8.070312-2.808594-15.539062-3.738281-24.679688h-.230469c-1.410157 9.019532-2.691407 16.609376-4.558594 24.679688l-7.480469 34.429688h-19.5l-18.691406-80h19.039062l5.960938 32.988281c1.75 9.5 3.378906 19.820312 4.671875 27.902343h.226563c1.292968-8.671874 3.160156-18.28125 5.140624-28.128906l6.660157-32.761718h18.921875l6.308594 33.710937c1.75 9.367187 3.039062 17.917969 4.199218 26.816406h.242188c1.167968-8.898437 2.917968-18.277343 4.550781-27.769531l6.429687-32.757812zm0 0"/><path d="m185 187.460938h-180c-2.761719 0-5-2.238282-5-5 0-2.761719 2.238281-5 5-5h180c2.761719 0 5 2.238281 5 5 0 2.761718-2.238281 5-5 5zm0 0"/></g><path d="m407.96875 59.472656-29.730469 29.457032c-14.589843-14.589844-32.007812-26.429688-51.347656-34.617188-2.410156-1.03125-4.859375-1.992188-7.339844-2.902344-3.710937-1.359375-7.492187-2.589844-11.332031-3.679687-11.5-3.28125-23.527344-5.308594-35.917969-5.941407-2.761719-.136718-5.53125-.207031-8.3125-.207031-28.050781 0-54.378906 7.089844-77.300781 19.539063-2.289062 1.25-4.546875 2.539062-6.777344 3.890625-4.441406 2.699219-8.742187 5.609375-12.890625 8.710937-2.082031 1.550782-4.109375 3.148438-6.101562 4.789063-3.988281 3.289062-7.808594 6.769531-11.457031 10.421875l-29.460938-29.460938c36.621094-36.894531 87.550781-59.472656 143.988281-59.472656 56.160157 0 107.089844 22.582031 143.980469 59.472656zm0 0" fill="#ff7979"/><path d="m127.5 64.472656c36.621094-36.894531 87.550781-59.472656 143.988281-59.472656 40.105469 0 77.539063 11.519531 109.101563 31.539062-33.058594-23.085937-73.269532-36.539062-116.601563-36.539062-56.4375 0-107.367187 22.578125-143.988281 59.472656l29.460938 29.457032c.417968-.414063.84375-.820313 1.265624-1.234376zm0 0" fill="#d65b5b"/><path d="m357.355469 71.308594c7.460937 5.289062 14.449219 11.1875 20.882812 17.621094l1.078125-1.066407c-6.8125-6.109375-14.160156-11.652343-21.960937-16.554687zm0 0" fill="#d65b5b"/><path d="m326.890625 54.3125c19.339844 8.1875 36.761719 20.027344 51.351563 34.617188l-29.460938 29.460937c-21.75-21.75-51.761719-34.96875-84.789062-34.96875-33.320313 0-63.320313 13.21875-85.070313 34.96875l-29.460937-29.460937c3.648437-3.648438 7.46875-7.128907 11.460937-10.417969 1.988281-1.640625 4.019531-3.242188 6.097656-4.789063 4.152344-3.101562 8.449219-6.011718 12.890625-8.710937 2.230469-1.351563 4.488282-2.640625 6.78125-3.890625 22.917969-12.449219 49.25-19.542969 77.296875-19.542969 2.78125 0 5.550781.070313 8.3125.210937 12.390625.632813 24.417969 2.660157 35.917969 5.941407 3.839844 1.089843 7.621094 2.320312 11.332031 3.679687 2.480469.910156 4.929688 1.871094 7.339844 2.902344zm0 0" fill="#fcd884"/><path d="m165.921875 85.109375c1.988281-1.640625 4.019531-3.238281 6.097656-4.789063 4.152344-3.101562 8.449219-6.011718 12.890625-8.710937 2.230469-1.347656 4.488282-2.640625 6.78125-3.890625 22.917969-12.449219 49.25-19.539062 77.296875-19.539062 2.78125 0 5.550781.070312 8.3125.210937 12.390625.628906 24.417969 2.660156 35.917969 5.9375 3.839844 1.09375 7.621094 2.320313 11.332031 3.683594 2.480469.910156 4.929688 1.867187 7.339844 2.898437 16.777344 7.105469 32.105469 16.957032 45.398437 28.972656l.949219-.953124c-14.589843-14.589844-32.007812-26.429688-51.347656-34.617188-2.410156-1.03125-4.859375-1.992188-7.339844-2.902344-3.710937-1.359375-7.492187-2.589844-11.332031-3.679687-11.5-3.28125-23.527344-5.308594-35.917969-5.941407-2.761719-.136718-5.53125-.207031-8.3125-.207031-28.050781 0-54.378906 7.089844-77.300781 19.539063-2.289062 1.25-4.546875 2.539062-6.777344 3.890625-4.441406 2.699219-8.742187 5.609375-12.890625 8.710937-2.082031 1.550782-4.109375 3.148438-6.101562 4.789063-3.988281 3.289062-7.808594 6.769531-11.457031 10.421875l5.808593 5.808594c3.40625-3.363282 6.953125-6.582032 10.652344-9.632813zm0 0" fill="#eabf6a"/><path d="m348.78125 118.390625-24.839844 25.070313-4.621094 4.660156c-1.601562-1.632813-3.28125-3.179688-5.019531-4.660156-.171875-.148438-.339843-.300782-.511719-.441407-2.890624-2.417969-5.960937-4.628906-9.199218-6.609375-2.148438-1.320312-4.378906-2.527344-6.671875-3.640625-2.289063-1.109375-4.640625-2.109375-7.039063-2.988281-4.808594-1.769531-9.839844-3.082031-15.019531-3.878906-3.878906-.601563-7.851563-.910156-11.871094-.910156-2.71875 0-5.410156.140624-8.050781.410156-2.648438.269531-5.25.667968-7.808594 1.1875-15.339844 3.148437-29.019531 10.789062-39.761718 21.53125l-4.621094-4.660156-24.828125-25.070313c21.75-21.75 51.75-34.96875 85.070312-34.96875 33.03125 0 63.042969 13.21875 84.792969 34.96875zm0 0" fill="#ff7979"/><path d="m270.070312 91.039062c29.558594 0 56.695313 10.597657 77.660157 28.410157l1.050781-1.058594c-21.75-21.75-51.761719-34.96875-84.792969-34.96875-33.316406 0-63.316406 13.21875-85.066406 34.96875l6.824219 6.890625c21.6875-21.3125 51.382812-34.242188 84.324218-34.242188zm0 0" fill="#d65b5b"/><path d="m290.878906 129.78125c2.402344.878906 4.75 1.878906 7.042969 2.988281 2.289063 1.109375 4.519531 2.320313 6.667969 3.640625 3.238281 1.980469 6.3125 4.191406 9.199218 6.609375.171876.140625.339844.292969.511719.441407 1.738281 1.480468 3.417969 3.027343 5.019531 4.660156l-55.328124 55.339844-55.621094-55.339844c10.738281-10.742188 24.417968-18.382813 39.761718-21.53125 2.558594-.519532 5.15625-.917969 7.808594-1.1875 2.640625-.273438 5.328125-.410156 8.050782-.410156 4.019531 0 7.988281.308593 11.871093.910156 5.175781.796875 10.207031 2.109375 15.015625 3.878906zm0 0" fill="#fcd884"/><path d="m254.628906 134.09375c2.5625-.519531 5.160156-.917969 7.8125-1.1875 2.640625-.269531 5.328125-.410156 8.050782-.410156 4.019531 0 7.988281.308594 11.867187.910156 5.179687.800781 10.210937 2.109375 15.023437 3.878906 2.398438.878906 4.75 1.878906 7.039063 2.992188 2.289063 1.109375 4.519531 2.316406 6.667969 3.636718 2.554687 1.5625 4.996094 3.269532 7.332031 5.105469l.898437-.898437c-1.601562-1.628906-3.28125-3.179688-5.019531-4.660156-.171875-.148438-.339843-.300782-.511719-.4375-2.890624-2.421876-5.960937-4.628907-9.199218-6.609376-2.148438-1.320312-4.378906-2.53125-6.667969-3.640624-2.292969-1.109376-4.640625-2.109376-7.042969-2.992188-4.808594-1.769531-9.839844-3.078125-15.019531-3.878906-3.878906-.601563-7.851563-.910156-11.871094-.910156-2.71875 0-5.410156.140624-8.046875.410156-2.652344.269531-5.25.671875-7.8125 1.191406-15.339844 3.148438-29.019531 10.789062-39.761718 21.527344l7.03125 6.996094c10.660156-10.46875 24.140624-17.921876 39.230468-21.023438zm0 0" fill="#eabf6a"/></svg>