<svg height="454pt" viewBox="-2 0 454 454.61781" width="454pt" xmlns="http://www.w3.org/2000/svg"><path d="m430.308594 64.617188v390h-400v-390h33.519531c-.027344.019531-.058594.039062-.089844.0625h355.242188c.648437 0 1.296875-.023438 1.949219-.0625zm0 0" fill="#f0f1f1"/><path d="m40.777344 266.117188v-190h33.523437c-.03125.019531-.0625.039062-.09375.0625h355.242188c.285156 0 .574219-.019532.859375-.027344v-11.535156h-9.378906c-.652344.039062-1.300782.0625-1.949219.0625h-355.242188c.03125-.023438.0625-.042969.089844-.0625h-33.519531v390h10.46875zm0 0" fill="#dee0e0"/><path d="m330.308594 374.617188h40v30h-40zm0 0" fill="#ff7979"/><path d="m337.058594 381.992188h33.25v-7.375h-40v30h6.75zm0 0" fill="#d65b5b"/><path d="m330.308594 214.617188h40v160h-40zm0 0" fill="#febe76"/><path d="m337.433594 222.867188h32.875v-8.25h-40v160h7.125zm0 0" fill="#e8a664"/><path d="m350.308594 154.617188 20 60h-40zm0 0" fill="#57606f"/><path d="m354.265625 166.492188-3.957031-11.875-20 60h7.917968zm0 0" fill="#414a56"/><path d="m441.207031 10.886719c5.640625 5.761719 9.101563 13.699219 9.101563 22.460937 0 16.410156-12.800782 30.261719-29.378906 31.269532h-357.101563c10.539063-6.460938 17.421875-18.410157 17.421875-31.730469 0-12.898438-6.449219-24.417969-16.589844-31.328125h354.320313c8.75 0 16.589843 3.570312 22.226562 9.328125zm0 0" fill="#ffebbe"/><path d="m74.882812 11.890625h347.335938c8.75 0 16.589844 3.570313 22.230469 9.332031 2.214843 2.265625 4.089843 4.871094 5.558593 7.726563-.949218-7.003907-4.121093-13.285157-8.800781-18.0625-5.640625-5.757813-13.476562-9.328125-22.226562-9.328125h-354.320313c4.0625 2.769531 7.523438 6.289062 10.222656 10.332031zm0 0" fill="#e5d0a8"/><path d="m84.488281 43.222656c0-5.859375-1.339843-11.425781-3.742187-16.410156.320312 1.984375.503906 4.007812.503906 6.078125 0 13.316406-6.882812 25.269531-17.421875 31.726563h14.046875c4.175781-6.078126 6.613281-13.492188 6.613281-21.394532zm0 0" fill="#e5d0a8"/><path d="m64.660156 1.558594c10.140625 6.910156 16.589844 18.429687 16.589844 31.328125 0 13.320312-6.882812 25.269531-17.421875 31.730469h-33.519531v190h-30v-210c0-26.257813 20.121094-46.75 46.378906-44.4375zm0 0" fill="#f0dca0"/><path d="m8.308594 51.949219c0-26.257813 20.121094-46.75 46.378906-44.4375l17.972656 1.378906c0 .003906.003906.003906.007813.007813-2.292969-2.796876-4.984375-5.277344-8.007813-7.339844l-17.972656-1.378906c-26.257812-2.3125-46.378906 18.179687-46.378906 44.4375v210h8zm0 0" fill="#ddc792"/><g fill="#dee0e0"><path d="m280.308594 104.617188h20v20h-20zm0 0"/><path d="m240.308594 104.617188h20v20h-20zm0 0"/><path d="m200.308594 104.617188h20v20h-20zm0 0"/><path d="m160.308594 104.617188h20v20h-20zm0 0"/><path d="m290.308594 169.617188h-220c-2.761719 0-5-2.238282-5-5 0-2.761719 2.238281-5 5-5h220c2.761718 0 5 2.238281 5 5 0 2.761718-2.238282 5-5 5zm0 0"/><path d="m290.308594 209.617188h-220c-2.761719 0-5-2.238282-5-5 0-2.761719 2.238281-5 5-5h220c2.761718 0 5 2.238281 5 5 0 2.761718-2.238282 5-5 5zm0 0"/><path d="m290.308594 249.617188h-220c-2.761719 0-5-2.238282-5-5 0-2.761719 2.238281-5 5-5h220c2.761718 0 5 2.238281 5 5 0 2.761718-2.238282 5-5 5zm0 0"/><path d="m290.308594 289.617188h-220c-2.761719 0-5-2.238282-5-5 0-2.761719 2.238281-5 5-5h220c2.761718 0 5 2.238281 5 5 0 2.761718-2.238282 5-5 5zm0 0"/><path d="m290.308594 329.617188h-220c-2.761719 0-5-2.238282-5-5 0-2.761719 2.238281-5 5-5h220c2.761718 0 5 2.238281 5 5 0 2.761718-2.238282 5-5 5zm0 0"/><path d="m290.308594 369.617188h-220c-2.761719 0-5-2.238282-5-5 0-2.761719 2.238281-5 5-5h220c2.761718 0 5 2.238281 5 5 0 2.761718-2.238282 5-5 5zm0 0"/><path d="m290.308594 409.617188h-65.179688c-2.761718 0-5-2.238282-5-5 0-2.761719 2.238282-5 5-5h65.179688c2.761718 0 5 2.238281 5 5 0 2.761718-2.238282 5-5 5zm0 0"/></g><path d="m395.308594 369.617188h-30c-2.761719 0-5-2.238282-5-5 0-2.761719 2.238281-5 5-5h25v-65c0-2.761719 2.238281-5 5-5 2.761718 0 5 2.238281 5 5v70c0 2.761718-2.238282 5-5 5zm0 0" fill="#febe76"/></svg>